<?xml version="1.0" standalone="no"?>
<!DOCTYPE svg PUBLIC "-//W3C//DTD SVG 20010904//EN"
 "http://www.w3.org/TR/2001/REC-SVG-20010904/DTD/svg10.dtd">
<svg version="1.0" xmlns="http://www.w3.org/2000/svg"
 width="512.000000pt" height="512.000000pt" viewBox="0 0 512.000000 512.000000"
 preserveAspectRatio="xMidYMid meet">
<metadata>
Created by potrace 1.14, written by Peter Selinger 2001-2017
</metadata>
<g transform="translate(0.000000,512.000000) scale(0.100000,-0.100000)"
fill="#000000" stroke="none">
<path d="M371 5105 c-147 -33 -258 -114 -312 -230 -16 -34 -32 -73 -35 -86 -2
-13 -9 -44 -14 -69 -6 -27 -8 -895 -7 -2190 2 -1922 4 -2150 18 -2195 53 -166
148 -261 314 -314 45 -14 274 -16 2195 -18 1911 -2 2153 -1 2220 13 91 19 162
53 222 108 68 61 97 114 136 247 3 13 8 987 9 2164 3 2364 7 2222 -60 2350
-53 102 -134 167 -267 211 -53 18 -137 19 -2205 21 -1801 1 -2160 -1 -2214
-12z"/>
</g>
</svg>
